<svg xmlns="http://www.w3.org/2000/svg" width="553.2392578125" height="568.2072143554688" viewBox="-162.16610717773438 -198.90623474121094 553.2392578125 568.2072143554688"><title>Neo4j Graph Visualization</title><desc>Created using Neo4j (http://www.neo4j.com/)</desc><g class="layer relationships"><g class="relationship" transform="translate(-47.569125341029334 269.0282214960562) rotate(313.6453912305983)"><path class="outline" fill="#A5ABB6" stroke="none" d="M 25 0.5 L 63.614622595753744 0.5 L 63.614622595753744 -0.5 L 25 -0.5 Z M 98.05993509575374 0.5 L 136.6745576915075 0.5 L 136.6745576915075 3.5 L 143.6745576915075 0 L 136.6745576915075 -3.5 L 136.6745576915075 -0.5 L 98.05993509575374 -0.5 Z"/><text text-anchor="middle" pointer-events="none" font-size="8px" fill="#000000" x="80.83727884575374" y="3" font-family="sans-serif">ORIGIN</text></g><g class="relationship" transform="translate(-47.569125341029334 269.0282214960562) rotate(493.95989600261277)"><path class="outline" fill="#A5ABB6" stroke="none" d="M 25 0.5 L 27.22766622824456 0.5 L 27.22766622824456 -0.5 L 25 -0.5 Z M 64.78625997824456 0.5 L 67.01392620648912 0.5 L 67.01392620648912 3.5 L 74.01392620648912 0 L 67.01392620648912 -3.5 L 67.01392620648912 -0.5 L 64.78625997824456 -0.5 Z"/><text text-anchor="middle" pointer-events="none" font-size="8px" fill="#000000" x="46.00696310324456" y="3" transform="rotate(180 46.00696310324456 0)" font-family="sans-serif">DESTI…</text></g><g class="relationship" transform="translate(228.67963605091433 211.15498882572453) rotate(201.8791328439566)"><path class="outline" fill="#A5ABB6" stroke="none" d="M 25 0.5 L 65.39564820917606 0.5 L 65.39564820917606 -0.5 L 25 -0.5 Z M 99.84096070917606 0.5 L 140.23660891835212 0.5 L 140.23660891835212 3.5 L 147.23660891835212 0 L 140.23660891835212 -3.5 L 140.23660891835212 -0.5 L 99.84096070917606 -0.5 Z"/><text text-anchor="middle" pointer-events="none" font-size="8px" fill="#000000" x="82.61830445917606" y="3" transform="rotate(180 82.61830445917606 0)" font-family="sans-serif">ORIGIN</text></g><g class="relationship" transform="translate(228.67963605091433 211.15498882572453) rotate(422.18261693998045)"><path class="outline" fill="#A5ABB6" stroke="none" d="M 25 0.5 L 33.263954897069866 0.5 L 33.263954897069866 -0.5 L 25 -0.5 Z M 92.45145489706987 0.5 L 100.71540979413973 0.5 L 100.71540979413973 3.5 L 107.71540979413973 0 L 100.71540979413973 -3.5 L 100.71540979413973 -0.5 L 92.45145489706987 -0.5 Z"/><text text-anchor="middle" pointer-events="none" font-size="8px" fill="#000000" x="62.857704897069866" y="3" font-family="sans-serif">DESTINATION</text></g><g class="relationship" transform="translate(11.481052757454908 261.2738372133229) rotate(296.65177627346577)"><path class="outline" fill="#A5ABB6" stroke="none" d="M 25 0.5 L 43.22301610812508 0.5 L 43.22301610812508 -0.5 L 25 -0.5 Z M 77.66832860812508 0.5 L 95.89134471625016 0.5 L 95.89134471625016 3.5 L 102.89134471625016 0 L 95.89134471625016 -3.5 L 95.89134471625016 -0.5 L 77.66832860812508 -0.5 Z"/><text text-anchor="middle" pointer-events="none" font-size="8px" fill="#000000" x="60.44567235812508" y="3" font-family="sans-serif">ORIGIN</text></g><g class="relationship" transform="translate(11.481052757454908 261.2738372133229) rotate(508.2649863030301)"><path class="outline" fill="#A5ABB6" stroke="none" d="M 25 0.5 L 42.0283475941725 0.5 L 42.0283475941725 -0.5 L 25 -0.5 Z M 101.2158475941725 0.5 L 118.244195188345 0.5 L 118.244195188345 3.5 L 125.244195188345 0 L 118.244195188345 -3.5 L 118.244195188345 -0.5 L 101.2158475941725 -0.5 Z"/><text text-anchor="middle" pointer-events="none" font-size="8px" fill="#000000" x="71.6220975941725" y="3" transform="rotate(180 71.6220975941725 0)" font-family="sans-serif">DESTINATION</text></g><g class="relationship" transform="translate(133.05263178537461 -0.809217459123304) rotate(473.48273778989216)"><path class="outline" fill="#A5ABB6" stroke="none" d="M 25 0.5 L 59.83962947239729 0.5 L 59.83962947239729 -0.5 L 25 -0.5 Z M 94.28494197239729 0.5 L 129.12457144479458 0.5 L 129.12457144479458 3.5 L 136.12457144479458 0 L 129.12457144479458 -3.5 L 129.12457144479458 -0.5 L 94.28494197239729 -0.5 Z"/><text text-anchor="middle" pointer-events="none" font-size="8px" fill="#000000" x="77.06228572239729" y="3" transform="rotate(180 77.06228572239729 0)" font-family="sans-serif">ORIGIN</text></g><g class="relationship" transform="translate(133.05263178537461 -0.809217459123304) rotate(293.36611708445406)"><path class="outline" fill="#A5ABB6" stroke="none" d="M 25 0.5 L 44.6591334710463 0.5 L 44.6591334710463 -0.5 L 25 -0.5 Z M 103.8466334710463 0.5 L 123.5057669420926 0.5 L 123.5057669420926 3.5 L 130.5057669420926 0 L 123.5057669420926 -3.5 L 123.5057669420926 -0.5 L 103.8466334710463 -0.5 Z"/><text text-anchor="middle" pointer-events="none" font-size="8px" fill="#000000" x="74.2528834710463" y="3" font-family="sans-serif">DESTINATION</text></g><g class="relationship" transform="translate(170.31365060493343 224.8665213901696) rotate(217.513794852645)"><path class="outline" fill="#A5ABB6" stroke="none" d="M 25 0.5 L 43.23593410481171 0.5 L 43.23593410481171 -0.5 L 25 -0.5 Z M 77.68124660481172 0.5 L 95.91718070962342 0.5 L 95.91718070962342 3.5 L 102.91718070962342 0 L 95.91718070962342 -3.5 L 95.91718070962342 -0.5 L 77.68124660481172 -0.5 Z"/><text text-anchor="middle" pointer-events="none" font-size="8px" fill="#000000" x="60.45859035481171" y="3" transform="rotate(180 60.45859035481171 0)" font-family="sans-serif">ORIGIN</text></g><g class="relationship" transform="translate(170.31365060493343 224.8665213901696) rotate(400.7531618113585)"><path class="outline" fill="#A5ABB6" stroke="none" d="M 25 0.5 L 46.308028850007204 0.5 L 46.308028850007204 -0.5 L 25 -0.5 Z M 105.4955288500072 0.5 L 126.80355770001441 0.5 L 126.80355770001441 3.5 L 133.8035577000144 0 L 126.80355770001441 -3.5 L 126.80355770001441 -0.5 L 105.4955288500072 -0.5 Z"/><text text-anchor="middle" pointer-events="none" font-size="8px" fill="#000000" x="75.9017788500072" y="3" font-family="sans-serif">DESTINATION</text></g><g class="relationship" transform="translate(-59.29100799945185 8.868711556263358) rotate(407.14293536489805)"><path class="outline" fill="#A5ABB6" stroke="none" d="M 25 0.5 L 73.47405955743437 0.5 L 73.47405955743437 -0.5 L 25 -0.5 Z M 107.91937205743437 0.5 L 156.39343161486875 0.5 L 156.39343161486875 3.5 L 163.39343161486875 0 L 156.39343161486875 -3.5 L 156.39343161486875 -0.5 L 107.91937205743437 -0.5 Z"/><text text-anchor="middle" pointer-events="none" font-size="8px" fill="#000000" x="90.69671580743437" y="3" font-family="sans-serif">ORIGIN</text></g><g class="relationship" transform="translate(-59.29100799945185 8.868711556263358) rotate(222.4947798795837)"><path class="outline" fill="#A5ABB6" stroke="none" d="M 25 0.5 L 27.81645614341069 0.5 L 27.81645614341069 -0.5 L 25 -0.5 Z M 65.37504989341069 0.5 L 68.19150603682138 0.5 L 68.19150603682138 3.5 L 75.19150603682138 0 L 68.19150603682138 -3.5 L 68.19150603682138 -0.5 L 65.37504989341069 -0.5 Z"/><text text-anchor="middle" pointer-events="none" font-size="8px" fill="#000000" x="46.59575301841069" y="3" transform="rotate(180 46.59575301841069 0)" font-family="sans-serif">DESTI…</text></g><g class="relationship" transform="translate(-11.805185338900825 316.87411089251833) rotate(295.39398901792686)"><path class="outline" fill="#A5ABB6" stroke="none" d="M 25 0.5 L 73.31474358579675 0.5 L 73.31474358579675 -0.5 L 25 -0.5 Z M 107.76005608579675 0.5 L 156.0747996715935 0.5 L 156.0747996715935 3.5 L 163.0747996715935 0 L 156.0747996715935 -3.5 L 156.0747996715935 -0.5 L 107.76005608579675 -0.5 Z"/><text text-anchor="middle" pointer-events="none" font-size="8px" fill="#000000" x="90.53739983579675" y="3" font-family="sans-serif">ORIGIN</text></g><g class="relationship" transform="translate(-11.805185338900825 316.87411089251833) rotate(527.3637048746921)"><path class="outline" fill="#A5ABB6" stroke="none" d="M 25 0.5 L 25.708455653125704 0.5 L 25.708455653125704 -0.5 L 25 -0.5 Z M 74.3803306531257 0.5 L 75.08878630625141 0.5 L 75.08878630625141 3.5 L 82.08878630625141 0 L 75.08878630625141 -3.5 L 75.08878630625141 -0.5 L 74.3803306531257 -0.5 Z"/><text text-anchor="middle" pointer-events="none" font-size="8px" fill="#000000" x="50.044393153125704" y="3" transform="rotate(180 50.044393153125704 0)" font-family="sans-serif">DESTINA…</text></g><g class="relationship" transform="translate(221.65932342298882 80.7171568930011) rotate(516.5599350851174)"><path class="outline" fill="#A5ABB6" stroke="none" d="M 25 0.5 L 62.55490572912257 0.5 L 62.55490572912257 -0.5 L 25 -0.5 Z M 97.00021822912257 0.5 L 134.55512395824513 0.5 L 134.55512395824513 3.5 L 141.55512395824513 0 L 134.55512395824513 -3.5 L 134.55512395824513 -0.5 L 97.00021822912257 -0.5 Z"/><text text-anchor="middle" pointer-events="none" font-size="8px" fill="#000000" x="79.77756197912257" y="3" transform="rotate(180 79.77756197912257 0)" font-family="sans-serif">ORIGIN</text></g><g class="relationship" transform="translate(221.65932342298882 80.7171568930011) rotate(362.66006617150265)"><path class="outline" fill="#A5ABB6" stroke="none" d="M 25 0.5 L 37.18888073576916 0.5 L 37.18888073576916 -0.5 L 25 -0.5 Z M 96.37638073576916 0.5 L 108.56526147153832 0.5 L 108.56526147153832 3.5 L 115.56526147153832 0 L 108.56526147153832 -3.5 L 108.56526147153832 -0.5 L 96.37638073576916 -0.5 Z"/><text text-anchor="middle" pointer-events="none" font-size="8px" fill="#000000" x="66.78263073576916" y="3" font-family="sans-serif">DESTINATION</text></g><g class="relationship" transform="translate(-43.00430055652333 209.48145118264074) rotate(330.8008674823728)"><path class="outline" fill="#A5ABB6" stroke="none" d="M 25 0.5 L 43.345051876915846 0.5 L 43.345051876915846 -0.5 L 25 -0.5 Z M 77.79036437691585 0.5 L 96.13541625383169 0.5 L 96.13541625383169 3.5 L 103.13541625383169 0 L 96.13541625383169 -3.5 L 96.13541625383169 -0.5 L 77.79036437691585 -0.5 Z"/><text text-anchor="middle" pointer-events="none" font-size="8px" fill="#000000" x="60.567708126915846" y="3" font-family="sans-serif">ORIGIN</text></g><g class="relationship" transform="translate(-43.00430055652333 209.48145118264074) rotate(479.2611135930517)"><path class="outline" fill="#A5ABB6" stroke="none" d="M 25 0.5 L 41.882964669841215 0.5 L 41.882964669841215 -0.5 L 25 -0.5 Z M 101.07046466984121 0.5 L 117.95342933968243 0.5 L 117.95342933968243 3.5 L 124.95342933968243 0 L 117.95342933968243 -3.5 L 117.95342933968243 -0.5 L 101.07046466984121 -0.5 Z"/><text text-anchor="middle" pointer-events="none" font-size="8px" fill="#000000" x="71.47671466984121" y="3" transform="rotate(180 71.47671466984121 0)" font-family="sans-serif">DESTINATION</text></g><g class="relationship" transform="translate(47.220679419412434 309.40553359416447) rotate(277.584338987786)"><path class="outline" fill="#A5ABB6" stroke="none" d="M 25 0.5 L 61.21137574247729 0.5 L 61.21137574247729 -0.5 L 25 -0.5 Z M 95.65668824247729 0.5 L 131.86806398495457 0.5 L 131.86806398495457 3.5 L 138.86806398495457 0 L 131.86806398495457 -3.5 L 131.86806398495457 -0.5 L 95.65668824247729 -0.5 Z"/><text text-anchor="middle" pointer-events="none" font-size="8px" fill="#000000" x="78.43403199247729" y="3" font-family="sans-serif">ORIGIN</text></g><g class="relationship" transform="translate(47.220679419412434 309.40553359416447) rotate(529.3007111902036)"><path class="outline" fill="#A5ABB6" stroke="none" d="M 25 0.5 L 50.11318774039762 0.5 L 50.11318774039762 -0.5 L 25 -0.5 Z M 109.30068774039762 0.5 L 134.41387548079524 0.5 L 134.41387548079524 3.5 L 141.41387548079524 0 L 134.41387548079524 -3.5 L 134.41387548079524 -0.5 L 109.30068774039762 -0.5 Z"/><text text-anchor="middle" pointer-events="none" font-size="8px" fill="#000000" x="79.70693774039762" y="3" transform="rotate(180 79.70693774039762 0)" font-family="sans-serif">DESTINATION</text></g><g class="relationship" transform="translate(183.486681127931 34.31111108898876) rotate(495.4985560139019)"><path class="outline" fill="#A5ABB6" stroke="none" d="M 25 0.5 L 59.642270894290306 0.5 L 59.642270894290306 -0.5 L 25 -0.5 Z M 94.0875833942903 0.5 L 128.7298542885806 0.5 L 128.7298542885806 3.5 L 135.7298542885806 0 L 128.7298542885806 -3.5 L 128.7298542885806 -0.5 L 94.0875833942903 -0.5 Z"/><text text-anchor="middle" pointer-events="none" font-size="8px" fill="#000000" x="76.8649271442903" y="3" transform="rotate(180 76.8649271442903 0)" font-family="sans-serif">ORIGIN</text></g><g class="relationship" transform="translate(183.486681127931 34.31111108898876) rotate(320.73624894612095)"><path class="outline" fill="#A5ABB6" stroke="none" d="M 25 0.5 L 45.80485105769992 0.5 L 45.80485105769992 -0.5 L 25 -0.5 Z M 104.99235105769992 0.5 L 125.79720211539984 0.5 L 125.79720211539984 3.5 L 132.79720211539984 0 L 125.79720211539984 -3.5 L 125.79720211539984 -0.5 L 104.99235105769992 -0.5 Z"/><text text-anchor="middle" pointer-events="none" font-size="8px" fill="#000000" x="75.39860105769992" y="3" font-family="sans-serif">DESTINATION</text></g><g class="relationship" transform="translate(-1.416995049802201 -6.046718085015628) rotate(425.33537618074973)"><path class="outline" fill="#A5ABB6" stroke="none" d="M 25 0.5 L 63.46720167889485 0.5 L 63.46720167889485 -0.5 L 25 -0.5 Z M 97.91251417889485 0.5 L 136.3797158577897 0.5 L 136.3797158577897 3.5 L 143.3797158577897 0 L 136.3797158577897 -3.5 L 136.3797158577897 -0.5 L 97.91251417889485 -0.5 Z"/><text text-anchor="middle" pointer-events="none" font-size="8px" fill="#000000" x="80.68985792889485" y="3" font-family="sans-serif">ORIGIN</text></g><g class="relationship" transform="translate(-1.416995049802201 -6.046718085015628) rotate(201.8263727466359)"><path class="outline" fill="#A5ABB6" stroke="none" d="M 25 0.5 L 37.867688734960126 0.5 L 37.867688734960126 -0.5 L 25 -0.5 Z M 97.05518873496013 0.5 L 109.92287746992025 0.5 L 109.92287746992025 3.5 L 116.92287746992025 0 L 109.92287746992025 -3.5 L 109.92287746992025 -0.5 L 97.05518873496013 -0.5 Z"/><text text-anchor="middle" pointer-events="none" font-size="8px" fill="#000000" x="67.46143873496013" y="3" transform="rotate(180 67.46143873496013 0)" font-family="sans-serif">DESTINATION</text></g><g class="relationship" transform="translate(-26.883078807276583 58.72414551023447) rotate(402.6702434465244)"><path class="outline" fill="#A5ABB6" stroke="none" d="M 25 0.5 L 44.37750309956701 0.5 L 44.37750309956701 -0.5 L 25 -0.5 Z M 78.82281559956701 0.5 L 98.20031869913402 0.5 L 98.20031869913402 3.5 L 105.20031869913402 0 L 98.20031869913402 -3.5 L 98.20031869913402 -0.5 L 78.82281559956701 -0.5 Z"/><text text-anchor="middle" pointer-events="none" font-size="8px" fill="#000000" x="61.60015934956701" y="3" font-family="sans-serif">ORIGIN</text></g><g class="relationship" transform="translate(-26.883078807276583 58.72414551023447) rotate(227.87851133039658)"><path class="outline" fill="#A5ABB6" stroke="none" d="M 25 0.5 L 46.138585100863054 0.5 L 46.138585100863054 -0.5 L 25 -0.5 Z M 105.32608510086305 0.5 L 126.46467020172611 0.5 L 126.46467020172611 3.5 L 133.4646702017261 0 L 126.46467020172611 -3.5 L 126.46467020172611 -0.5 L 105.32608510086305 -0.5 Z"/><text text-anchor="middle" pointer-events="none" font-size="8px" fill="#000000" x="75.73233510086305" y="3" transform="rotate(180 75.73233510086305 0)" font-family="sans-serif">DESTINATION</text></g><g class="relationship" transform="translate(71.2689923194975 -14.94512747704214) rotate(450.8563191544295)"><path class="outline" fill="#A5ABB6" stroke="none" d="M 25 0.5 L 60.244472250504714 0.5 L 60.244472250504714 -0.5 L 25 -0.5 Z M 94.68978475050471 0.5 L 129.93425700100943 0.5 L 129.93425700100943 3.5 L 136.93425700100943 0 L 129.93425700100943 -3.5 L 129.93425700100943 -0.5 L 94.68978475050471 -0.5 Z"/><text text-anchor="middle" pointer-events="none" font-size="8px" fill="#000000" x="77.46712850050471" y="3" transform="rotate(180 77.46712850050471 0)" font-family="sans-serif">ORIGIN</text></g><g class="relationship" transform="translate(71.2689923194975 -14.94512747704214) rotate(266.2100445100404)"><path class="outline" fill="#A5ABB6" stroke="none" d="M 25 0.5 L 44.556620779884724 0.5 L 44.556620779884724 -0.5 L 25 -0.5 Z M 103.74412077988472 0.5 L 123.30074155976945 0.5 L 123.30074155976945 3.5 L 130.30074155976945 0 L 123.30074155976945 -3.5 L 123.30074155976945 -0.5 L 103.74412077988472 -0.5 Z"/><text text-anchor="middle" pointer-events="none" font-size="8px" fill="#000000" x="74.15037077988472" y="3" transform="rotate(180 74.15037077988472 0)" font-family="sans-serif">DESTINATION</text></g><g class="relationship" transform="translate(-97.49573391998143 235.67783841429082) rotate(331.9302840591018)"><path class="outline" fill="#A5ABB6" stroke="none" d="M 25 0.5 L 73.53686024048643 0.5 L 73.53686024048643 -0.5 L 25 -0.5 Z M 107.98217274048643 0.5 L 156.51903298097287 0.5 L 156.51903298097287 3.5 L 163.51903298097287 0 L 156.51903298097287 -3.5 L 156.51903298097287 -0.5 L 107.98217274048643 -0.5 Z"/><text text-anchor="middle" pointer-events="none" font-size="8px" fill="#000000" x="90.75951649048643" y="3" font-family="sans-serif">ORIGIN</text></g><g class="relationship" transform="translate(-97.49573391998143 235.67783841429082) rotate(460.1892284503997)"><path class="outline" fill="#A5ABB6" stroke="none" d="M 25 0.5 L 25.313877728062863 0.5 L 25.313877728062863 -0.5 L 25 -0.5 Z M 73.98575272806286 0.5 L 74.29963045612573 0.5 L 74.29963045612573 3.5 L 81.29963045612573 0 L 74.29963045612573 -3.5 L 74.29963045612573 -0.5 L 73.98575272806286 -0.5 Z"/><text text-anchor="middle" pointer-events="none" font-size="8px" fill="#000000" x="49.64981522806286" y="3" transform="rotate(180 49.64981522806286 0)" font-family="sans-serif">DESTINA…</text></g><g class="relationship" transform="translate(155.06471024012427 293.1817356494696) rotate(239.47348879189087)"><path class="outline" fill="#A5ABB6" stroke="none" d="M 25 0.5 L 64.14597127062865 0.5 L 64.14597127062865 -0.5 L 25 -0.5 Z M 98.59128377062865 0.5 L 137.7372550412573 0.5 L 137.7372550412573 3.5 L 144.7372550412573 0 L 137.7372550412573 -3.5 L 137.7372550412573 -0.5 L 98.59128377062865 -0.5 Z"/><text text-anchor="middle" pointer-events="none" font-size="8px" fill="#000000" x="81.36862752062865" y="3" transform="rotate(180 81.36862752062865 0)" font-family="sans-serif">ORIGIN</text></g><g class="relationship" transform="translate(155.06471024012427 293.1817356494696) rotate(374.6176473863601)"><path class="outline" fill="#A5ABB6" stroke="none" d="M 25 0.5 L 36.94698164769271 0.5 L 36.94698164769271 -0.5 L 25 -0.5 Z M 96.13448164769271 0.5 L 108.08146329538542 0.5 L 108.08146329538542 3.5 L 115.08146329538542 0 L 108.08146329538542 -3.5 L 108.08146329538542 -0.5 L 96.13448164769271 -0.5 Z"/><text text-anchor="middle" pointer-events="none" font-size="8px" fill="#000000" x="66.54073164769271" y="3" font-family="sans-serif">DESTINATION</text></g><g class="relationship" transform="translate(-86.15564554491017 67.09777305041314) rotate(387.26188751724976)"><path class="outline" fill="#A5ABB6" stroke="none" d="M 25 0.5 L 66.46412924888327 0.5 L 66.46412924888327 -0.5 L 25 -0.5 Z M 100.90944174888327 0.5 L 142.37357099776654 0.5 L 142.37357099776654 3.5 L 149.37357099776654 0 L 142.37357099776654 -3.5 L 142.37357099776654 -0.5 L 100.90944174888327 -0.5 Z"/><text text-anchor="middle" pointer-events="none" font-size="8px" fill="#000000" x="83.68678549888327" y="3" font-family="sans-serif">ORIGIN</text></g><g class="relationship" transform="translate(-86.15564554491017 67.09777305041314) rotate(249.5262097128375)"><path class="outline" fill="#A5ABB6" stroke="none" d="M 25 0.5 L 34.106501616055226 0.5 L 34.106501616055226 -0.5 L 25 -0.5 Z M 93.29400161605523 0.5 L 102.40050323211045 0.5 L 102.40050323211045 3.5 L 109.40050323211045 0 L 102.40050323211045 -3.5 L 102.40050323211045 -0.5 L 93.29400161605523 -0.5 Z"/><text text-anchor="middle" pointer-events="none" font-size="8px" fill="#000000" x="63.700251616055226" y="3" transform="rotate(180 63.700251616055226 0)" font-family="sans-serif">DESTINATION</text></g><g class="relationship" transform="translate(-92.92525245506997 176.43137474695212) rotate(349.67909170410155)"><path class="outline" fill="#A5ABB6" stroke="none" d="M 25 0.5 L 61.494709441643906 0.5 L 61.494709441643906 -0.5 L 25 -0.5 Z M 95.9400219416439 0.5 L 132.4347313832878 0.5 L 132.4347313832878 3.5 L 139.4347313832878 0 L 132.4347313832878 -3.5 L 132.4347313832878 -0.5 L 95.9400219416439 -0.5 Z"/><text text-anchor="middle" pointer-events="none" font-size="8px" fill="#000000" x="78.7173656916439" y="3" font-family="sans-serif">ORIGIN</text></g><g class="relationship" transform="translate(-92.92525245506997 176.43137474695212) rotate(458.1180777469603)"><path class="outline" fill="#A5ABB6" stroke="none" d="M 25 0.5 L 49.67043237836363 0.5 L 49.67043237836363 -0.5 L 25 -0.5 Z M 108.85793237836363 0.5 L 133.52836475672726 0.5 L 133.52836475672726 3.5 L 140.52836475672726 0 L 133.52836475672726 -3.5 L 133.52836475672726 -0.5 L 108.85793237836363 -0.5 Z"/><text text-anchor="middle" pointer-events="none" font-size="8px" fill="#000000" x="79.26418237836363" y="3" transform="rotate(180 79.26418237836363 0)" font-family="sans-serif">DESTINATION</text></g><g class="relationship" transform="translate(234.165898557654 139.16353321641915) rotate(537.2960721887316)"><path class="outline" fill="#A5ABB6" stroke="none" d="M 25 0.5 L 62.0279841983229 0.5 L 62.0279841983229 -0.5 L 25 -0.5 Z M 96.4732966983229 0.5 L 133.5012808966458 0.5 L 133.5012808966458 3.5 L 140.5012808966458 0 L 133.5012808966458 -3.5 L 133.5012808966458 -0.5 L 96.4732966983229 -0.5 Z"/><text text-anchor="middle" pointer-events="none" font-size="8px" fill="#000000" x="79.2506404483229" y="3" transform="rotate(180 79.2506404483229 0)" font-family="sans-serif">ORIGIN</text></g><g class="relationship" transform="translate(234.165898557654 139.16353321641915) rotate(337.90577906697297)"><path class="outline" fill="#A5ABB6" stroke="none" d="M 25 0.5 L 35.92839364366807 0.5 L 35.92839364366807 -0.5 L 25 -0.5 Z M 95.11589364366807 0.5 L 106.04428728733615 0.5 L 106.04428728733615 3.5 L 113.04428728733615 0 L 106.04428728733615 -3.5 L 106.04428728733615 -0.5 L 95.11589364366807 -0.5 Z"/><text text-anchor="middle" pointer-events="none" font-size="8px" fill="#000000" x="65.52214364366807" y="3" font-family="sans-serif">DESTINATION</text></g><g class="relationship" transform="translate(209.87624849044275 269.25093677428004) rotate(220.9274132908451)"><path class="outline" fill="#A5ABB6" stroke="none" d="M 25 0.5 L 72.60618562529311 0.5 L 72.60618562529311 -0.5 L 25 -0.5 Z M 107.05149812529311 0.5 L 154.65768375058622 0.5 L 154.65768375058622 3.5 L 161.65768375058622 0 L 154.65768375058622 -3.5 L 154.65768375058622 -0.5 L 107.05149812529311 -0.5 Z"/><text text-anchor="middle" pointer-events="none" font-size="8px" fill="#000000" x="89.82884187529311" y="3" transform="rotate(180 89.82884187529311 0)" font-family="sans-serif">ORIGIN</text></g><g class="relationship" transform="translate(209.87624849044275 269.25093677428004) rotate(396.2891798559417)"><path class="outline" fill="#A5ABB6" stroke="none" d="M 25 0.5 L 27.802392269015286 0.5 L 27.802392269015286 -0.5 L 25 -0.5 Z M 65.36098601901529 0.5 L 68.16337828803057 0.5 L 68.16337828803057 3.5 L 75.16337828803057 0 L 68.16337828803057 -3.5 L 68.16337828803057 -0.5 L 65.36098601901529 -0.5 Z"/><text text-anchor="middle" pointer-events="none" font-size="8px" fill="#000000" x="46.581689144015286" y="3" font-family="sans-serif">DESTI…</text></g></g><g class="layer nodes"><g class="node" transform="translate(68.84887961846519,146.97104418281174)"><circle class="outline" cx="0" cy="0" r="25" fill="#ECB5C9" stroke="#da7298" stroke-width="2px"/><text text-anchor="middle" pointer-events="none" font-family="sans-serif" dy="1.5625" font-size="25" fill="#2A2C34"/><text text-anchor="middle" pointer-events="none" x="0" y="5" font-size="10px" fill="#2A2C34" font-family="sans-serif"> LAX</text></g><g class="node" transform="translate(-116.30010765648619,340.30100489039563)"><circle class="outline" cx="0" cy="0" r="25" fill="#ECB5C9" stroke="#da7298" stroke-width="2px"/><text text-anchor="middle" pointer-events="none" font-family="sans-serif" dy="1.5625" font-size="25" fill="#2A2C34"/><text text-anchor="middle" pointer-events="none" x="0" y="5" font-size="10px" fill="#2A2C34" font-family="sans-serif"> ABQ</text></g><g class="node" transform="translate(290.61194472402786,328.533731105767)"><circle class="outline" cx="0" cy="0" r="25" fill="#ECB5C9" stroke="#da7298" stroke-width="2px"/><text text-anchor="middle" pointer-events="none" font-family="sans-serif" dy="1.5625" font-size="25" fill="#2A2C34"/><text text-anchor="middle" pointer-events="none" x="0" y="5" font-size="10px" fill="#2A2C34" font-family="sans-serif"> SMF</text></g><g class="node" transform="translate(194.7270104950989,-143.561851631029)"><circle class="outline" cx="0" cy="0" r="25" fill="#ECB5C9" stroke="#da7298" stroke-width="2px"/><text text-anchor="middle" pointer-events="none" font-family="sans-serif" dy="1.5625" font-size="25" fill="#2A2C34"/><text text-anchor="middle" pointer-events="none" x="0" y="5" font-size="10px" fill="#2A2C34" font-family="sans-serif"> EWR</text></g><g class="node" transform="translate(-133.1661014090001,-58.81295845605928)"><circle class="outline" cx="0" cy="0" r="25" fill="#ECB5C9" stroke="#da7298" stroke-width="2px"/><text text-anchor="middle" pointer-events="none" font-family="sans-serif" dy="1.5625" font-size="25" fill="#2A2C34"/><text text-anchor="middle" pointer-events="none" x="0" y="5" font-size="10px" fill="#2A2C34" font-family="sans-serif"> FAT</text></g><g class="node" transform="translate(362.0731208272756,87.24082388862874)"><circle class="outline" cx="0" cy="0" r="25" fill="#ECB5C9" stroke="#da7298" stroke-width="2px"/><text text-anchor="middle" pointer-events="none" font-family="sans-serif" dy="1.5625" font-size="25" fill="#2A2C34"/><text text-anchor="middle" pointer-events="none" x="0" y="5" font-size="10px" fill="#2A2C34" font-family="sans-serif"> TUS</text></g><g class="node" transform="translate(305.65970867602914,-65.55734406668094)"><circle class="outline" cx="0" cy="0" r="25" fill="#ECB5C9" stroke="#da7298" stroke-width="2px"/><text text-anchor="middle" pointer-events="none" font-family="sans-serif" dy="1.5625" font-size="25" fill="#2A2C34"/><text text-anchor="middle" pointer-events="none" x="0" y="5" font-size="10px" fill="#2A2C34" font-family="sans-serif"> IAH</text></g><g class="node" transform="translate(61.00377248028057,-169.90623740681403)"><circle class="outline" cx="0" cy="0" r="25" fill="#ECB5C9" stroke="#da7298" stroke-width="2px"/><text text-anchor="middle" pointer-events="none" font-family="sans-serif" dy="1.5625" font-size="25" fill="#2A2C34"/><text text-anchor="middle" pointer-events="none" x="0" y="5" font-size="10px" fill="#2A2C34" font-family="sans-serif"> LAS</text></g><g class="node" transform="translate(-47.569125341029334,269.0282214960562)"><circle class="outline" cx="0" cy="0" r="25" fill="#4C8EDA" stroke="#2870c2" stroke-width="2px"/><text text-anchor="middle" pointer-events="none" font-family="sans-serif" dy="1.5625" font-size="25" fill="#FFFFFF"/><text text-anchor="middle" pointer-events="none" x="0" y="5" font-size="10px" fill="#FFFFFF" font-family="sans-serif"> 11/4/2015</text></g><g class="node" transform="translate(228.67963605091433,211.15498882572453)"><circle class="outline" cx="0" cy="0" r="25" fill="#4C8EDA" stroke="#2870c2" stroke-width="2px"/><text text-anchor="middle" pointer-events="none" font-family="sans-serif" dy="1.5625" font-size="25" fill="#FFFFFF"/><text text-anchor="middle" pointer-events="none" x="0" y="5" font-size="10px" fill="#FFFFFF" font-family="sans-serif"> 11/2/2015</text></g><g class="node" transform="translate(11.481052757454908,261.2738372133229)"><circle class="outline" cx="0" cy="0" r="25" fill="#4C8EDA" stroke="#2870c2" stroke-width="2px"/><text text-anchor="middle" pointer-events="none" font-family="sans-serif" dy="1.5625" font-size="25" fill="#FFFFFF"/><text text-anchor="middle" pointer-events="none" x="0" y="5" font-size="10px" fill="#FFFFFF" font-family="sans-serif"> 11/1/2015</text></g><g class="node" transform="translate(133.05263178537461,-0.809217459123304)"><circle class="outline" cx="0" cy="0" r="25" fill="#4C8EDA" stroke="#2870c2" stroke-width="2px"/><text text-anchor="middle" pointer-events="none" font-family="sans-serif" dy="1.5625" font-size="25" fill="#FFFFFF"/><text text-anchor="middle" pointer-events="none" x="0" y="5" font-size="10px" fill="#FFFFFF" font-family="sans-serif"> 11/29/20…</text></g><g class="node" transform="translate(170.31365060493343,224.8665213901696)"><circle class="outline" cx="0" cy="0" r="25" fill="#4C8EDA" stroke="#2870c2" stroke-width="2px"/><text text-anchor="middle" pointer-events="none" font-family="sans-serif" dy="1.5625" font-size="25" fill="#FFFFFF"/><text text-anchor="middle" pointer-events="none" x="0" y="5" font-size="10px" fill="#FFFFFF" font-family="sans-serif"> 11/4/2015</text></g><g class="node" transform="translate(-59.29100799945185,8.868711556263358)"><circle class="outline" cx="0" cy="0" r="25" fill="#4C8EDA" stroke="#2870c2" stroke-width="2px"/><text text-anchor="middle" pointer-events="none" font-family="sans-serif" dy="1.5625" font-size="25" fill="#FFFFFF"/><text text-anchor="middle" pointer-events="none" x="0" y="5" font-size="10px" fill="#FFFFFF" font-family="sans-serif"> 11/3/2015</text></g><g class="node" transform="translate(-11.805185338900825,316.87411089251833)"><circle class="outline" cx="0" cy="0" r="25" fill="#4C8EDA" stroke="#2870c2" stroke-width="2px"/><text text-anchor="middle" pointer-events="none" font-family="sans-serif" dy="1.5625" font-size="25" fill="#FFFFFF"/><text text-anchor="middle" pointer-events="none" x="0" y="5" font-size="10px" fill="#FFFFFF" font-family="sans-serif"> 11/3/2015</text></g><g class="node" transform="translate(221.65932342298882,80.7171568930011)"><circle class="outline" cx="0" cy="0" r="25" fill="#4C8EDA" stroke="#2870c2" stroke-width="2px"/><text text-anchor="middle" pointer-events="none" font-family="sans-serif" dy="1.5625" font-size="25" fill="#FFFFFF"/><text text-anchor="middle" pointer-events="none" x="0" y="5" font-size="10px" fill="#FFFFFF" font-family="sans-serif"> 11/2/2015</text></g><g class="node" transform="translate(-43.00430055652333,209.48145118264074)"><circle class="outline" cx="0" cy="0" r="25" fill="#4C8EDA" stroke="#2870c2" stroke-width="2px"/><text text-anchor="middle" pointer-events="none" font-family="sans-serif" dy="1.5625" font-size="25" fill="#FFFFFF"/><text text-anchor="middle" pointer-events="none" x="0" y="5" font-size="10px" fill="#FFFFFF" font-family="sans-serif"> 11/1/2015</text></g><g class="node" transform="translate(47.220679419412434,309.40553359416447)"><circle class="outline" cx="0" cy="0" r="25" fill="#4C8EDA" stroke="#2870c2" stroke-width="2px"/><text text-anchor="middle" pointer-events="none" font-family="sans-serif" dy="1.5625" font-size="25" fill="#FFFFFF"/><text text-anchor="middle" pointer-events="none" x="0" y="5" font-size="10px" fill="#FFFFFF" font-family="sans-serif"> 11/2/2015</text></g><g class="node" transform="translate(183.486681127931,34.31111108898876)"><circle class="outline" cx="0" cy="0" r="25" fill="#4C8EDA" stroke="#2870c2" stroke-width="2px"/><text text-anchor="middle" pointer-events="none" font-family="sans-serif" dy="1.5625" font-size="25" fill="#FFFFFF"/><text text-anchor="middle" pointer-events="none" x="0" y="5" font-size="10px" fill="#FFFFFF" font-family="sans-serif"> 11/30/20…</text></g><g class="node" transform="translate(-1.416995049802201,-6.046718085015628)"><circle class="outline" cx="0" cy="0" r="25" fill="#4C8EDA" stroke="#2870c2" stroke-width="2px"/><text text-anchor="middle" pointer-events="none" font-family="sans-serif" dy="1.5625" font-size="25" fill="#FFFFFF"/><text text-anchor="middle" pointer-events="none" x="0" y="5" font-size="10px" fill="#FFFFFF" font-family="sans-serif"> 11/1/2015</text></g><g class="node" transform="translate(-26.883078807276583,58.72414551023447)"><circle class="outline" cx="0" cy="0" r="25" fill="#4C8EDA" stroke="#2870c2" stroke-width="2px"/><text text-anchor="middle" pointer-events="none" font-family="sans-serif" dy="1.5625" font-size="25" fill="#FFFFFF"/><text text-anchor="middle" pointer-events="none" x="0" y="5" font-size="10px" fill="#FFFFFF" font-family="sans-serif"> 11/2/2015</text></g><g class="node" transform="translate(71.2689923194975,-14.94512747704214)"><circle class="outline" cx="0" cy="0" r="25" fill="#4C8EDA" stroke="#2870c2" stroke-width="2px"/><text text-anchor="middle" pointer-events="none" font-family="sans-serif" dy="1.5625" font-size="25" fill="#FFFFFF"/><text text-anchor="middle" pointer-events="none" x="0" y="5" font-size="10px" fill="#FFFFFF" font-family="sans-serif"> 11/29/20…</text></g><g class="node" transform="translate(-97.49573391998143,235.67783841429082)"><circle class="outline" cx="0" cy="0" r="25" fill="#4C8EDA" stroke="#2870c2" stroke-width="2px"/><text text-anchor="middle" pointer-events="none" font-family="sans-serif" dy="1.5625" font-size="25" fill="#FFFFFF"/><text text-anchor="middle" pointer-events="none" x="0" y="5" font-size="10px" fill="#FFFFFF" font-family="sans-serif"> 11/2/2015</text></g><g class="node" transform="translate(155.06471024012427,293.1817356494696)"><circle class="outline" cx="0" cy="0" r="25" fill="#4C8EDA" stroke="#2870c2" stroke-width="2px"/><text text-anchor="middle" pointer-events="none" font-family="sans-serif" dy="1.5625" font-size="25" fill="#FFFFFF"/><text text-anchor="middle" pointer-events="none" x="0" y="5" font-size="10px" fill="#FFFFFF" font-family="sans-serif"> 11/1/2015</text></g><g class="node" transform="translate(-86.15564554491017,67.09777305041314)"><circle class="outline" cx="0" cy="0" r="25" fill="#4C8EDA" stroke="#2870c2" stroke-width="2px"/><text text-anchor="middle" pointer-events="none" font-family="sans-serif" dy="1.5625" font-size="25" fill="#FFFFFF"/><text text-anchor="middle" pointer-events="none" x="0" y="5" font-size="10px" fill="#FFFFFF" font-family="sans-serif"> 11/4/2015</text></g><g class="node" transform="translate(-92.92525245506997,176.43137474695212)"><circle class="outline" cx="0" cy="0" r="25" fill="#4C8EDA" stroke="#2870c2" stroke-width="2px"/><text text-anchor="middle" pointer-events="none" font-family="sans-serif" dy="1.5625" font-size="25" fill="#FFFFFF"/><text text-anchor="middle" pointer-events="none" x="0" y="5" font-size="10px" fill="#FFFFFF" font-family="sans-serif"> 11/3/2015</text></g><g class="node" transform="translate(234.165898557654,139.16353321641915)"><circle class="outline" cx="0" cy="0" r="25" fill="#4C8EDA" stroke="#2870c2" stroke-width="2px"/><text text-anchor="middle" pointer-events="none" font-family="sans-serif" dy="1.5625" font-size="25" fill="#FFFFFF"/><text text-anchor="middle" pointer-events="none" x="0" y="5" font-size="10px" fill="#FFFFFF" font-family="sans-serif"> 11/1/2015</text></g><g class="node" transform="translate(209.87624849044275,269.25093677428004)"><circle class="outline" cx="0" cy="0" r="25" fill="#4C8EDA" stroke="#2870c2" stroke-width="2px"/><text text-anchor="middle" pointer-events="none" font-family="sans-serif" dy="1.5625" font-size="25" fill="#FFFFFF"/><text text-anchor="middle" pointer-events="none" x="0" y="5" font-size="10px" fill="#FFFFFF" font-family="sans-serif"> 11/3/2015</text></g></g></svg>