<svg xmlns="http://www.w3.org/2000/svg" width="393.62469482421875" height="412.01434326171875" viewBox="-95.66900634765625 -117.27299499511719 393.62469482421875 412.01434326171875"><title>Neo4j Graph Visualization</title><desc>Created using Neo4j (http://www.neo4j.com/)</desc><g class="layer relationships"><g class="relationship" transform="translate(99.79323035966385 -88.2729976689582) rotate(385.64134459260475)"><path class="outline" fill="#A5ABB6" stroke="none" d="M 24.018736134675446,-6.953439040707552 L 24.277555179777966,-5.987513214418485 A 107.79960441908875 107.79960441908875 0 0 1 39.55119434230797,-8.918621609520045 L 39.434060781533866,-9.911737780438827 A 108.79960441908875 108.79960441908875 0 0 0 24.018736134675446,-6.953439040707552 Z M 61.50661284350378,-10.260047074191789 L 61.420872945501806,-9.263729519448006 A 107.79960441908875 107.79960441908875 0 0 1 76.77939120527371,-6.81600270559433 L 76.09475292260404,-3.8951688483023506 L 83.7087765860666,-5.70531902224713 L 77.69224224883325,-10.710447848650302 L 77.00760396616359,-7.7896139913583236 A 108.79960441908875 108.79960441908875 0 0 0 61.50661284350378,-10.260047074191789"/><text text-anchor="middle" pointer-events="none" font-size="8px" fill="#000000" x="50.469369144535655" y="-7.147214081145194" font-family="sans-serif">road</text></g><g class="relationship" transform="translate(197.2016716892939 -41.51623719299097) rotate(410.8590849585773)"><path class="outline" fill="#A5ABB6" stroke="none" d="M 21.40063509461097,-12.933012701892217 L 21.90063509461097,-12.06698729810778 A 66.36209298093182 66.36209298093182 0 0 1 30.670714700969004,-16.304983344431 L 30.30286965890377,-17.234870447808625 A 67.36209298093182 67.36209298093182 0 0 0 21.40063509461097,-12.933012701892217 Z M 76.15929255280108,-18.57530290833681 L 75.84639237356093,-17.62551689147223 A 66.36209298093182 66.36209298093182 0 0 1 84.84904831209944,-13.90703698123933 L 83.5033689314517,-11.225778507220173 L 91.32959798158542,-11.21399483873114 L 86.64328748629642,-17.482048279931536 L 85.29760810564868,-14.80078980591238 A 67.36209298093182 67.36209298093182 0 0 0 76.15929255280108,-18.57530290833681"/><text text-anchor="middle" pointer-events="none" font-size="8px" fill="#000000" x="53.12806530278647" y="-18.429274855584595" font-family="sans-serif">twowheeler</text></g><g class="relationship" transform="translate(268.95572359281806 46.64839364770446) rotate(499.3455762371722)"><path class="outline" fill="#A5ABB6" stroke="none" d="M 21.40063509461097,12.933012701892217 L 21.90063509461097,12.06698729810778 A 66.68121816510711 66.68121816510711 0 0 0 42.45342149379027,19.76289473896881 L 42.261646012848836,20.744333562793145 A 67.68121816510711 67.68121816510711 0 0 1 21.40063509461097,12.933012701892217 Z M 64.3287524532693,21.38771522519548 L 64.19448317558083,20.396770342233253 A 66.68121816510711 66.68121816510711 0 0 0 85.16073509195782,13.911379013438463 L 83.81465181372297,11.230323287039521 L 91.64087899992782,11.217360651956994 L 86.95551279627094,17.486119981970383 L 85.6094295180361,14.805064255571441 A 67.68121816510711 67.68121816510711 0 0 1 64.3287524532693,21.38771522519548"/><text text-anchor="middle" pointer-events="none" font-size="8px" fill="#000000" x="53.28336154168486" y="24.472040932588328" transform="rotate(180 53.28336154168486 21.472040932588328)" font-family="sans-serif">road</text></g><g class="relationship" transform="translate(182.48219255442962 120.90777023108745) rotate(474.2867146285739)"><path class="outline" fill="#A5ABB6" stroke="none" d="M 25 0.5 L 47.59982694724097 0.5 L 47.59982694724097 -0.5 L 25 -0.5 Z M 66.93576444724097 0.5 L 89.53559139448194 0.5 L 89.53559139448194 3.5 L 96.53559139448194 0 L 89.53559139448194 -3.5 L 89.53559139448194 -0.5 L 66.93576444724097 -0.5 Z"/><text text-anchor="middle" pointer-events="none" font-size="8px" fill="#000000" x="57.26779569724097" y="3" transform="rotate(180 57.26779569724097 0)" font-family="sans-serif">trek</text></g><g class="relationship" transform="translate(99.79323035966385 -88.2729976689582) rotate(385.64134459260475)"><path class="outline" fill="#A5ABB6" stroke="none" d="M 24.018736134675446,6.953439040707552 L 24.277555179777966,5.987513214418485 A 107.79960441908875 107.79960441908875 0 0 0 40.87467073223154,9.066437018473351 L 40.76981436298384,10.060924394878 A 108.79960441908875 108.79960441908875 0 0 1 24.018736134675446,6.953439040707552 Z M 60.16681712389165,10.367012984616395 L 60.093391569556324,9.369712283738991 A 107.79960441908875 107.79960441908875 0 0 0 76.77939120527371,6.81600270559433 L 76.09475292260404,3.8951688483023506 L 83.7087765860666,5.70531902224713 L 77.69224224883325,10.710447848650302 L 77.00760396616359,7.7896139913583236 A 108.79960441908875 108.79960441908875 0 0 1 60.16681712389165,10.367012984616395"/><text text-anchor="middle" pointer-events="none" font-size="8px" fill="#000000" x="50.469369144535705" y="13.147214081145194" font-family="sans-serif">trek</text></g><g class="relationship" transform="translate(197.2016716892939 -41.51623719299097) rotate(410.8590849585773)"><path class="outline" fill="#A5ABB6" stroke="none" d="M 25 0.5 L 42.33084992420587 0.5 L 42.33084992420587 -0.5 L 25 -0.5 Z M 64.34256867420586 0.5 L 81.67341859841174 0.5 L 81.67341859841174 3.5 L 88.67341859841174 0 L 81.67341859841174 -3.5 L 81.67341859841174 -0.5 L 64.34256867420586 -0.5 Z"/><text text-anchor="middle" pointer-events="none" font-size="8px" fill="#000000" x="53.33670929920587" y="3" font-family="sans-serif">road</text></g><g class="relationship" transform="translate(197.2016716892939 -41.51623719299097) rotate(410.8590849585773)"><path class="outline" fill="#A5ABB6" stroke="none" d="M 21.40063509461097,12.933012701892217 L 21.90063509461097,12.06698729810778 A 66.36209298093182 66.36209298093182 0 0 0 43.60472395393736,19.957849673766475 L 43.431779474406895,20.94278124854715 A 67.36209298093182 67.36209298093182 0 0 1 21.40063509461097,12.933012701892217 Z M 62.83621236448926,21.50999364939642 L 62.72109523501397,20.516641724597676 A 66.36209298093182 66.36209298093182 0 0 0 84.84904831209944,13.90703698123933 L 83.5033689314517,11.225778507220173 L 91.32959798158542,11.21399483873114 L 86.64328748629642,17.482048279931536 L 85.29760810564868,14.80078980591238 A 67.36209298093182 67.36209298093182 0 0 1 62.83621236448926,21.50999364939642"/><text text-anchor="middle" pointer-events="none" font-size="8px" fill="#000000" x="53.12806530278647" y="24.429274855584595" font-family="sans-serif">trek</text></g><g class="relationship" transform="translate(268.95572359281806 46.64839364770446) rotate(499.3455762371722)"><path class="outline" fill="#A5ABB6" stroke="none" d="M 25 0.5 L 30.259083151626157 0.5 L 30.259083151626157 -0.5 L 25 -0.5 Z M 76.72392690162616 0.5 L 81.98301005325231 0.5 L 81.98301005325231 3.5 L 88.98301005325231 0 L 81.98301005325231 -3.5 L 81.98301005325231 -0.5 L 76.72392690162616 -0.5 Z"/><text text-anchor="middle" pointer-events="none" font-size="8px" fill="#000000" x="53.49150502662616" y="3" transform="rotate(180 53.49150502662616 0)" font-family="sans-serif">twowheeler</text></g><g class="relationship" transform="translate(268.95572359281806 46.64839364770446) rotate(499.3455762371722)"><path class="outline" fill="#A5ABB6" stroke="none" d="M 21.40063509461097,-12.933012701892217 L 21.90063509461097,-12.06698729810778 A 66.68121816510711 66.68121816510711 0 0 1 43.75915634371299,-20.004566145138284 L 43.58696261136363,-20.98962924897458 A 67.68121816510711 67.68121816510711 0 0 0 21.40063509461097,-12.933012701892217 Z M 62.99139574236597,-21.55537884009142 L 62.876886107709346,-20.561956702442572 A 66.68121816510711 66.68121816510711 0 0 1 85.16073509195782,-13.911379013438463 L 83.81465181372297,-11.230323287039521 L 91.64087899992782,-11.217360651956994 L 86.95551279627094,-17.486119981970383 L 85.6094295180361,-14.805064255571441 A 67.68121816510711 67.68121816510711 0 0 0 62.99139574236597,-21.55537884009142"/><text text-anchor="middle" pointer-events="none" font-size="8px" fill="#000000" x="53.28336154168485" y="-18.472040932588328" transform="rotate(180 53.28336154168485 -21.472040932588328)" font-family="sans-serif">trek</text></g><g class="relationship" transform="translate(99.79323035966385 -88.2729976689582) rotate(448.59779105605844)"><path class="outline" fill="#A5ABB6" stroke="none" d="M 21.40063509461097,12.933012701892217 L 21.90063509461097,12.06698729810778 A 64.34361712584236 64.34361712584236 0 0 0 42.62870762718764,19.66156587377413 L 42.45085415016033,20.645622854192084 A 65.34361712584236 65.34361712584236 0 0 1 21.40063509461097,12.933012701892217 Z M 61.855211088843085,21.22225769926689 L 61.73610584530687,20.22937606434651 A 64.34361712584236 64.34361712584236 0 0 0 82.87857578157698,13.8790548400583 L 81.53549933930736,11.19649157515281 L 89.36173614006806,11.192303685580116 L 84.6693443712698,17.455805859932283 L 83.32626792900018,14.773242595026796 A 65.34361712584236 65.34361712584236 0 0 1 61.855211088843085,21.22225769926689"/><text text-anchor="middle" pointer-events="none" font-size="8px" fill="#000000" x="52.14635095696993" y="24.15878510845927" font-family="sans-serif">trek</text></g><g class="relationship" transform="translate(102.5270118346686 23.409978535934123) rotate(410.6457907161167)"><path class="outline" fill="#A5ABB6" stroke="none" d="M 25 0.5 L 49.876956322049125 0.5 L 49.876956322049125 -0.5 L 25 -0.5 Z M 69.21289382204912 0.5 L 94.08985014409825 0.5 L 94.08985014409825 3.5 L 101.08985014409825 0 L 94.08985014409825 -3.5 L 94.08985014409825 -0.5 L 69.21289382204912 -0.5 Z"/><text text-anchor="middle" pointer-events="none" font-size="8px" fill="#000000" x="59.544925072049125" y="3" font-family="sans-serif">trek</text></g><g class="relationship" transform="translate(99.79323035966385 -88.2729976689582) rotate(448.59779105605844)"><path class="outline" fill="#A5ABB6" stroke="none" d="M 25 0.5 L 41.35235563214023 0.5 L 41.35235563214023 -0.5 L 25 -0.5 Z M 63.36407438214023 0.5 L 79.71643001428046 0.5 L 79.71643001428046 3.5 L 86.71643001428046 0 L 79.71643001428046 -3.5 L 79.71643001428046 -0.5 L 63.36407438214023 -0.5 Z"/><text text-anchor="middle" pointer-events="none" font-size="8px" fill="#000000" x="52.35821500714023" y="3" font-family="sans-serif">road</text></g><g class="relationship" transform="translate(99.79323035966385 -88.2729976689582) rotate(448.59779105605844)"><path class="outline" fill="#A5ABB6" stroke="none" d="M 21.40063509461097,-12.933012701892217 L 21.90063509461097,-12.06698729810778 A 64.34361712584236 64.34361712584236 0 0 1 22.90464000904433,-12.634712785505144 L 22.4202438087572,-13.509561527372789 A 65.34361712584236 65.34361712584236 0 0 0 21.40063509461097,-12.933012701892217 Z M 82.2742223252184,-15.288228542106303 L 81.84263038237609,-14.386159589712086 A 64.34361712584236 64.34361712584236 0 0 1 82.87857578157698,-13.8790548400583 L 81.53549933930736,-11.19649157515281 L 89.36173614006806,-11.192303685580116 L 84.6693443712698,-17.455805859932283 L 83.32626792900018,-14.773242595026796 A 65.34361712584236 65.34361712584236 0 0 0 82.2742223252184,-15.288228542106303"/><text text-anchor="middle" pointer-events="none" font-size="8px" fill="#000000" x="52.146350956969954" y="-18.15878510845927" font-family="sans-serif">PublicTransport</text></g><g class="relationship" transform="translate(102.5270118346686 23.409978535934123) rotate(517.998824805708)"><path class="outline" fill="#A5ABB6" stroke="none" d="M 24.018736134675446,-6.953439040707552 L 24.277555179777966,-5.987513214418485 A 138.63614599833267 138.63614599833267 0 0 1 35.21943231006804,-8.449717790115926 L 35.03953840423203,-9.433403808438385 A 139.63614599833267 139.63614599833267 0 0 0 24.018736134675446,-6.953439040707552 Z M 81.45048412155325,-10.078669772673294 L 81.29800745538941,-9.090362701831651 A 138.63614599833267 138.63614599833267 0 0 1 92.30410760259356,-6.933307751983837 L 91.60851244014826,-4.01506386738771 L 99.22927586039208,-5.796626353710828 L 93.2315678191873,-10.824299598112008 L 92.535972656742,-7.90605571351588 A 139.63614599833267 139.63614599833267 0 0 0 81.45048412155325,-10.078669772673294"/><text text-anchor="middle" pointer-events="none" font-size="8px" fill="#000000" x="58.22496347846528" y="-8.19797962712525" transform="rotate(180 58.22496347846528 -11.19797962712525)" font-family="sans-serif">twowheeler</text></g><g class="relationship" transform="translate(-12.023726443511528 69.6942140972134) rotate(423.6137955226666)"><path class="outline" fill="#A5ABB6" stroke="none" d="M 24.018736134675446,-6.953439040707552 L 24.277555179777966,-5.987513214418485 A 113.22079261660772 113.22079261660772 0 0 1 28.905400304449895,-7.123721448514729 L 28.68745577557111,-8.099682606723292 A 114.22079261660772 114.22079261660772 0 0 0 24.018736134675446,-6.953439040707552 Z M 75.0271347508203,-8.81403505861553 L 74.83937662334655,-7.831819763699215 A 113.22079261660772 113.22079261660772 0 0 1 79.5000450178242,-6.838799237277492 L 78.8132773718398,-3.9184653179406914 L 86.42861877060747,-5.723063716536686 L 80.41573521247008,-10.732577796393226 L 79.72896756648568,-7.812243877056426 A 114.22079261660772 114.22079261660772 0 0 0 75.0271347508203,-8.81403505861553"/><text text-anchor="middle" pointer-events="none" font-size="8px" fill="#000000" x="51.82839031163026" y="-7.331908288704426" font-family="sans-serif">twowheeler</text></g><g class="relationship" transform="translate(37.202281514889236 168.91934502712533) rotate(393.37253739315105)"><path class="outline" fill="#A5ABB6" stroke="none" d="M 24.018736134675446,6.953439040707552 L 24.277555179777966,5.987513214418485 A 119.88108544480276 119.88108544480276 0 0 0 30.551692678659382,7.488954823601873 L 30.345209975654548,8.467405074437252 A 120.88108544480276 120.88108544480276 0 0 1 24.018736134675446,6.953439040707552 Z M 76.70874358032162,9.162362624922082 L 76.53167964793627,8.178163273241623 A 119.88108544480276 119.88108544480276 0 0 0 82.8479994874645,6.865443979013632 L 82.158743059443,3.9456964597183384 L 89.77561977049045,5.743803566845974 L 83.76700805815986,10.758440671407357 L 83.07775163013835,7.838693152112063 A 120.88108544480276 120.88108544480276 0 0 1 76.70874358032162,9.162362624922082"/><text text-anchor="middle" pointer-events="none" font-size="8px" fill="#000000" x="53.500836059536404" y="13.558840840346392" font-family="sans-serif">twowheeler</text></g><g class="relationship" transform="translate(102.5270118346686 23.409978535934123) rotate(517.998824805708)"><path class="outline" fill="#A5ABB6" stroke="none" d="M 24.018736134675446,6.953439040707552 L 24.277555179777966,5.987513214418485 A 138.63614599833267 138.63614599833267 0 0 0 48.612019725629864,10.229696240252679 L 48.52872824132772,11.226221467551369 A 139.63614599833267 139.63614599833267 0 0 1 24.018736134675446,6.953439040707552 Z M 67.91666567528704,11.49577805489281 L 67.86111103708025,10.497322406316613 A 138.63614599833267 138.63614599833267 0 0 0 92.30410760259356,6.933307751983837 L 91.60851244014826,4.01506386738771 L 99.22927586039208,5.796626353710828 L 93.2315678191873,10.824299598112008 L 92.535972656742,7.90605571351588 A 139.63614599833267 139.63614599833267 0 0 1 67.91666567528704,11.49577805489281"/><text text-anchor="middle" pointer-events="none" font-size="8px" fill="#000000" x="58.22496347846533" y="14.19797962712525" transform="rotate(180 58.22496347846533 11.19797962712525)" font-family="sans-serif">trek</text></g><g class="relationship" transform="translate(-12.023726443511528 69.6942140972134) rotate(423.6137955226666)"><path class="outline" fill="#A5ABB6" stroke="none" d="M 24.018736134675446,6.953439040707552 L 24.277555179777966,5.987513214418485 A 113.22079261660772 113.22079261660772 0 0 0 42.2296713722377,9.274922863523628 L 42.12941080193097,10.269884077864063 A 114.22079261660772 114.22079261660772 0 0 1 24.018736134675446,6.953439040707552 Z M 61.524673013412084,10.568873052804179 L 61.45512857915557,9.571294197944098 A 113.22079261660772 113.22079261660772 0 0 0 79.5000450178242,6.838799237277492 L 78.8132773718398,3.9184653179406914 L 86.42861877060747,5.723063716536686 L 80.41573521247008,10.732577796393226 L 79.72896756648568,7.812243877056426 A 114.22079261660772 114.22079261660772 0 0 1 61.524673013412084,10.568873052804179"/><text text-anchor="middle" pointer-events="none" font-size="8px" fill="#000000" x="51.828390311630294" y="13.331908288704426" font-family="sans-serif">trek</text></g><g class="relationship" transform="translate(37.202281514889236 168.91934502712533) rotate(393.37253739315105)"><path class="outline" fill="#A5ABB6" stroke="none" d="M 24.018736134675446,-6.953439040707552 L 24.277555179777966,-5.987513214418485 A 119.88108544480276 119.88108544480276 0 0 1 43.897734746180056,-9.528393742352932 L 43.802579380744795,-10.523856175812313 A 120.88108544480276 120.88108544480276 0 0 0 24.018736134675446,-6.953439040707552 Z M 63.195784274471656,-10.814547008049459 L 63.13050755226999,-9.816679807697327 A 119.88108544480276 119.88108544480276 0 0 1 82.8479994874645,-6.865443979013632 L 82.158743059443,-3.9456964597183384 L 89.77561977049045,-5.743803566845974 L 83.76700805815986,-10.758440671407357 L 83.07775163013835,-7.838693152112063 A 120.88108544480276 120.88108544480276 0 0 0 63.195784274471656,-10.814547008049459"/><text text-anchor="middle" pointer-events="none" font-size="8px" fill="#000000" x="53.50083605953638" y="-7.558840840346392" font-family="sans-serif">trek</text></g><g class="relationship" transform="translate(102.5270118346686 23.409978535934123) rotate(325.55835615951753)"><path class="outline" fill="#A5ABB6" stroke="none" d="M 25 0.5 L 44.2313010786919 0.5 L 44.2313010786919 -0.5 L 25 -0.5 Z M 63.5672385786919 0.5 L 82.7985396573838 0.5 L 82.7985396573838 3.5 L 89.7985396573838 0 L 82.7985396573838 -3.5 L 82.7985396573838 -0.5 L 63.5672385786919 -0.5 Z"/><text text-anchor="middle" pointer-events="none" font-size="8px" fill="#000000" x="53.8992698286919" y="3" font-family="sans-serif">trek</text></g><g class="relationship" transform="translate(-12.023726443511528 69.6942140972134) rotate(477.46801345016536)"><path class="outline" fill="#A5ABB6" stroke="none" d="M 24.018736134675446,-6.953439040707552 L 24.277555179777966,-5.987513214418485 A 128.56140255195623 128.56140255195623 0 0 1 32.70682340536251,-7.944621476713351 L 32.513570448201335,-8.925770443256383 A 129.56140255195623 129.56140255195623 0 0 0 24.018736134675446,-6.953439040707552 Z M 78.90206661371367,-9.596869397182843 L 78.73727701150297,-8.610540655330894 A 128.56140255195623 128.56140255195623 0 0 1 87.21963245217151,-6.898091605766844 L 86.52732658342839,-3.9790656408080136 L 94.14607734853264,-5.769215572859362 L 88.14270694382901,-10.790126225711951 L 87.45040107508589,-7.871100260753121 A 129.56140255195623 129.56140255195623 0 0 0 78.90206661371367,-9.596869397182843"/><text text-anchor="middle" pointer-events="none" font-size="8px" fill="#000000" x="55.68476818607142" y="-7.854633140432014" transform="rotate(180 55.68476818607142 -10.854633140432014)" font-family="sans-serif">twowheeler</text></g><g class="relationship" transform="translate(-66.66900746038645 174.81005828367762) rotate(356.75413802933883)"><path class="outline" fill="#A5ABB6" stroke="none" d="M 21.40063509461097,12.933012701892217 L 21.90063509461097,12.06698729810778 A 56.401790637843526 56.401790637843526 0 0 0 38.80311407814149,18.480157653760152 L 38.6027939073168,19.459888141782635 A 57.401790637843526 57.401790637843526 0 0 1 21.40063509461097,12.933012701892217 Z M 58.00512242558408,20.076672177738637 L 57.86743348027022,19.086196658435732 A 56.401790637843526 56.401790637843526 0 0 0 75.14311247003144,13.759521781738991 L 73.81115571263214,11.071419998617982 L 81.63734275688034,11.099639644994133 L 76.9190548132305,17.343657492567004 L 75.5870980558312,14.655555709445993 A 57.401790637843526 57.401790637843526 0 0 1 58.00512242558408,20.076672177738637"/><text text-anchor="middle" pointer-events="none" font-size="8px" fill="#000000" x="48.29358265826289" y="23.094665096242835" font-family="sans-serif">trek</text></g><g class="relationship" transform="translate(-12.023726443511528 69.6942140972134) rotate(477.46801345016536)"><path class="outline" fill="#A5ABB6" stroke="none" d="M 24.018736134675446,6.953439040707552 L 24.277555179777966,5.987513214418485 A 128.56140255195623 128.56140255195623 0 0 0 46.076713522042574,9.855002604324824 L 45.98745670875729,10.85101124950927 A 129.56140255195623 129.56140255195623 0 0 1 24.018736134675446,6.953439040707552 Z M 65.37812614751283,11.131534634657442 L 65.31771902495905,10.133360812347547 A 128.56140255195623 128.56140255195623 0 0 0 87.21963245217151,6.898091605766844 L 86.52732658342839,3.9790656408080136 L 94.14607734853264,5.769215572859362 L 88.14270694382901,10.790126225711951 L 87.45040107508589,7.871100260753121 A 129.56140255195623 129.56140255195623 0 0 1 65.37812614751283,11.131534634657442"/><text text-anchor="middle" pointer-events="none" font-size="8px" fill="#000000" x="55.684768186071466" y="13.854633140432014" transform="rotate(180 55.684768186071466 10.854633140432014)" font-family="sans-serif">trek</text></g><g class="relationship" transform="translate(-66.66900746038645 174.81005828367762) rotate(356.75413802933883)"><path class="outline" fill="#A5ABB6" stroke="none" d="M 25 0.5 L 37.5132360997777 0.5 L 37.5132360997777 -0.5 L 25 -0.5 Z M 59.5249548497777 0.5 L 72.0381909495554 0.5 L 72.0381909495554 3.5 L 79.0381909495554 0 L 72.0381909495554 -3.5 L 72.0381909495554 -0.5 L 59.5249548497777 -0.5 Z"/><text text-anchor="middle" pointer-events="none" font-size="8px" fill="#000000" x="48.5190954747777" y="3" font-family="sans-serif">road</text></g><g class="relationship" transform="translate(-66.66900746038645 174.81005828367762) rotate(356.75413802933883)"><path class="outline" fill="#A5ABB6" stroke="none" d="M 21.40063509461097,-12.933012701892217 L 21.90063509461097,-12.06698729810778 A 56.401790637843526 56.401790637843526 0 0 1 26.074296889826705,-14.249576863856824 L 25.648295636107914,-15.154299435604663 A 57.401790637843526 57.401790637843526 0 0 0 21.40063509461097,-12.933012701892217 Z M 71.20693063082132,-16.60257090148722 L 70.83925220158127,-15.67261790661513 A 56.401790637843526 56.401790637843526 0 0 1 75.14311247003144,-13.759521781738991 L 73.81115571263214,-11.071419998617982 L 81.63734275688034,-11.099639644994133 L 76.9190548132305,-17.343657492567004 L 75.5870980558312,-14.655555709445993 A 57.401790637843526 57.401790637843526 0 0 0 71.20693063082132,-16.60257090148722"/><text text-anchor="middle" pointer-events="none" font-size="8px" fill="#000000" x="48.29358265826289" y="-17.094665096242835" font-family="sans-serif">twowheeler</text></g><g class="relationship" transform="translate(-66.66900746038645 174.81005828367762) rotate(407.582980266011)"><path class="outline" fill="#A5ABB6" stroke="none" d="M 25 0.5 L 48.41730085171946 0.5 L 48.41730085171946 -0.5 L 25 -0.5 Z M 67.75323835171946 0.5 L 91.17053920343892 0.5 L 91.17053920343892 3.5 L 98.17053920343892 0 L 91.17053920343892 -3.5 L 91.17053920343892 -0.5 L 67.75323835171946 -0.5 Z"/><text text-anchor="middle" pointer-events="none" font-size="8px" fill="#000000" x="58.08526960171946" y="3" font-family="sans-serif">trek</text></g><g class="relationship" transform="translate(16.412196038488844 265.74132547403605) rotate(343.65033182642446)"><path class="outline" fill="#A5ABB6" stroke="none" d="M 25 0.5 L 47.31904821975203 0.5 L 47.31904821975203 -0.5 L 25 -0.5 Z M 66.65498571975203 0.5 L 88.97403393950405 0.5 L 88.97403393950405 3.5 L 95.97403393950405 0 L 88.97403393950405 -3.5 L 88.97403393950405 -0.5 L 66.65498571975203 -0.5 Z"/><text text-anchor="middle" pointer-events="none" font-size="8px" fill="#000000" x="56.98701696975203" y="3" font-family="sans-serif">trek</text></g></g><g class="layer nodes"><g class="node" transform="translate(99.79323035966385,-88.2729976689582)"><circle class="outline" cx="0" cy="0" r="25" fill="#F16667" stroke="#eb2728" stroke-width="2px"/><text text-anchor="middle" pointer-events="none" font-family="sans-serif" dy="1.5625" font-size="25" fill="#FFFFFF"/><text text-anchor="middle" pointer-events="none" x="0" y="5" font-size="10px" fill="#FFFFFF" font-family="sans-serif"> Darjeeling</text></g><g class="node" transform="translate(132.49423710445706,231.68730031466396)"><circle class="outline" cx="0" cy="0" r="25" fill="#D9C8AE" stroke="#c0a378" stroke-width="2px"/><text text-anchor="middle" pointer-events="none" font-family="sans-serif" dy="1.5625" font-size="25" fill="#2A2C34"/><text text-anchor="middle" pointer-events="none" x="0" y="5" font-size="10px" fill="#2A2C34" font-family="sans-serif"> Sandak…</text></g><g class="node" transform="translate(197.2016716892939,-41.51623719299097)"><circle class="outline" cx="0" cy="0" r="25" fill="#8DCC93" stroke="#5db665" stroke-width="2px"/><text text-anchor="middle" pointer-events="none" font-family="sans-serif" dy="1.5625" font-size="25" fill="#2A2C34"/><text text-anchor="middle" pointer-events="none" x="0" y="5" font-size="10px" fill="#2A2C34" font-family="sans-serif"> Tumbling</text></g><g class="node" transform="translate(268.95572359281806,46.64839364770446)"><circle class="outline" cx="0" cy="0" r="25" fill="#8DCC93" stroke="#5db665" stroke-width="2px"/><text text-anchor="middle" pointer-events="none" font-family="sans-serif" dy="1.5625" font-size="25" fill="#2A2C34"/><text text-anchor="middle" pointer-events="none" x="0" y="5" font-size="10px" fill="#2A2C34" font-family="sans-serif"> Gairibus</text></g><g class="node" transform="translate(182.48219255442962,120.90777023108745)"><circle class="outline" cx="0" cy="0" r="25" fill="#8DCC93" stroke="#5db665" stroke-width="2px"/><text text-anchor="middle" pointer-events="none" font-family="sans-serif" dy="1.5625" font-size="25" fill="#2A2C34"/><text text-anchor="middle" pointer-events="none" x="0" y="5" font-size="10px" fill="#2A2C34" font-family="sans-serif"> BhikeBh…</text></g><g class="node" transform="translate(102.5270118346686,23.409978535934123)"><circle class="outline" cx="0" cy="0" r="25" fill="#F16667" stroke="#eb2728" stroke-width="2px"/><text text-anchor="middle" pointer-events="none" font-family="sans-serif" dy="1.5625" font-size="25" fill="#FFFFFF"/><text text-anchor="middle" pointer-events="none" x="0" y="5" font-size="10px" fill="#FFFFFF" font-family="sans-serif"> Rimbik</text></g><g class="node" transform="translate(-12.023726443511528,69.6942140972134)"><circle class="outline" cx="0" cy="0" r="25" fill="#8DCC93" stroke="#5db665" stroke-width="2px"/><text text-anchor="middle" pointer-events="none" font-family="sans-serif" dy="1.5625" font-size="25" fill="#2A2C34"/><text text-anchor="middle" pointer-events="none" x="0" y="5" font-size="10px" fill="#2A2C34" font-family="sans-serif"> Sirikhola</text></g><g class="node" transform="translate(37.202281514889236,168.91934502712533)"><circle class="outline" cx="0" cy="0" r="25" fill="#8DCC93" stroke="#5db665" stroke-width="2px"/><text text-anchor="middle" pointer-events="none" font-family="sans-serif" dy="1.5625" font-size="25" fill="#2A2C34"/><text text-anchor="middle" pointer-events="none" x="0" y="5" font-size="10px" fill="#2A2C34" font-family="sans-serif"> Gurdum</text></g><g class="node" transform="translate(-66.66900746038645,174.81005828367762)"><circle class="outline" cx="0" cy="0" r="25" fill="#8DCC93" stroke="#5db665" stroke-width="2px"/><text text-anchor="middle" pointer-events="none" font-family="sans-serif" dy="1.5625" font-size="25" fill="#2A2C34"/><text text-anchor="middle" pointer-events="none" x="0" y="5" font-size="10px" fill="#2A2C34" font-family="sans-serif"> Rammam</text></g><g class="node" transform="translate(16.412196038488844,265.74132547403605)"><circle class="outline" cx="0" cy="0" r="25" fill="#D9C8AE" stroke="#c0a378" stroke-width="2px"/><text text-anchor="middle" pointer-events="none" font-family="sans-serif" dy="1.5625" font-size="25" fill="#2A2C34"/><text text-anchor="middle" pointer-events="none" x="0" y="5" font-size="10px" fill="#2A2C34" font-family="sans-serif"> Sabargr…</text></g></g></svg>