<svg xmlns="http://www.w3.org/2000/svg" width="363.92974853515625" height="364.08795166015625" viewBox="-89.85364532470703 -75.80126953125 363.92974853515625 364.08795166015625"><title>Neo4j Graph Visualization</title><desc>Created using Neo4j (http://www.neo4j.com/)</desc><g class="layer relationships"><g class="relationship" transform="translate(134.36154167590254 259.2866759073668) rotate(330.35593373154194)"><path class="outline" fill="#A5ABB6" stroke="none" d="M 21.40063509461097,12.933012701892217 L 21.90063509461097,12.06698729810778 A 57.534740385670965 57.534740385670965 0 0 0 24.22276996836223,13.337366851932728 L 23.76313053761457,14.225472472735774 A 58.534740385670965 58.534740385670965 0 0 1 21.40063509461097,12.933012701892217 Z M 74.25022636267876,15.814638429092398 L 73.84735072130998,14.899383700838186 A 57.534740385670965 57.534740385670965 0 0 0 76.24478418697555,13.77756047038917 L 74.91114930508952,11.090290852018722 L 82.7373524434876,11.113624015716857 L 78.02296402949024,17.360586628216435 L 76.68932914760421,14.673317009845986 A 58.534740385670965 58.534740385670965 0 0 1 74.25022636267876,15.814638429092398"/><text text-anchor="middle" pointer-events="none" font-size="8px" fill="#000000" x="48.84216884707473" y="23.246452392790374" font-family="sans-serif">PRODUCED</text></g><g class="relationship" transform="translate(134.36154167590254 259.2866759073668) rotate(330.35593373154194)"><path class="outline" fill="#A5ABB6" stroke="none" d="M 25 0.5 L 25.62032046495399 0.5 L 25.62032046495399 -0.5 L 25 -0.5 Z M 72.51094546495399 0.5 L 73.13126592990798 0.5 L 73.13126592990798 3.5 L 80.13126592990798 0 L 73.13126592990798 -3.5 L 73.13126592990798 -0.5 L 72.51094546495399 -0.5 Z"/><text text-anchor="middle" pointer-events="none" font-size="8px" fill="#000000" x="49.06563296495399" y="3" font-family="sans-serif">DIRECTED</text></g><g class="relationship" transform="translate(134.36154167590254 259.2866759073668) rotate(330.35593373154194)"><path class="outline" fill="#A5ABB6" stroke="none" d="M 21.40063509461097,-12.933012701892217 L 21.90063509461097,-12.06698729810778 A 57.534740385670965 57.534740385670965 0 0 1 31.498629189064125,-16.48784941366523 L 31.16545003556687,-17.43071295186938 A 58.534740385670965 58.534740385670965 0 0 0 21.40063509461097,-12.933012701892217 Z M 66.66097959371561,-18.547994234439344 L 66.38775767112921,-17.586043206050583 A 57.534740385670965 57.534740385670965 0 0 1 76.24478418697555,-13.77756047038917 L 74.91114930508952,-11.090290852018722 L 82.7373524434876,-11.113624015716857 L 78.02296402949024,-17.360586628216435 L 76.68932914760421,-14.673317009845986 A 58.534740385670965 58.534740385670965 0 0 0 66.66097959371561,-18.547994234439344"/><text text-anchor="middle" pointer-events="none" font-size="8px" fill="#000000" x="48.842168847074724" y="-17.246452392790374" font-family="sans-serif">WROTE</text></g><g class="relationship" transform="translate(245.07610274441035 18.537691085423305) rotate(205.2319324458697)"><path class="outline" fill="#A5ABB6" stroke="none" d="M 24.018736134675446,6.953439040707552 L 24.277555179777966,5.987513214418485 A 99.66917284432162 99.66917284432162 0 0 0 25.37521029460357,6.274942499696692 L 25.127404234594646,7.243752159342407 A 100.66917284432162 100.66917284432162 0 0 1 24.018736134675446,6.953439040707552 Z M 71.81674618337318,8.007558021378642 L 71.60076237971668,7.031161075173827 A 99.66917284432162 99.66917284432162 0 0 0 72.70723190556119,6.77978976910317 L 72.02597622926265,3.8581651006162963 L 79.63789874474698,5.677130635821079 L 73.61557280729255,10.675289327085668 L 72.93431713099402,7.753664658598794 A 100.66917284432162 100.66917284432162 0 0 1 71.81674618337318,8.007558021378642"/><text text-anchor="middle" pointer-events="none" font-size="8px" fill="#000000" x="48.43535505559678" y="12.870256609040709" transform="rotate(180 48.43535505559678 9.870256609040709)" font-family="sans-serif">DIRECTED</text></g><g class="relationship" transform="translate(245.07610274441035 18.537691085423305) rotate(205.2319324458697)"><path class="outline" fill="#A5ABB6" stroke="none" d="M 24.018736134675446,-6.953439040707552 L 24.277555179777966,-5.987513214418485 A 99.66917284432162 99.66917284432162 0 0 1 30.76881769422812,-7.496182292357403 L 30.57512673566635,-8.477244885962634 A 100.66917284432162 100.66917284432162 0 0 0 24.018736134675446,-6.953439040707552 Z M 66.33159141587855,-9.062196315742895 L 66.17009454811827,-8.075323091005487 A 99.66917284432162 99.66917284432162 0 0 1 72.70723190556119,-6.77978976910317 L 72.02597622926265,-3.8581651006162963 L 79.63789874474698,-5.677130635821079 L 73.61557280729255,-10.675289327085668 L 72.93431713099402,-7.753664658598794 A 100.66917284432162 100.66917284432162 0 0 0 66.33159141587855,-9.062196315742895"/><text text-anchor="middle" pointer-events="none" font-size="8px" fill="#000000" x="48.43535505559675" y="-6.870256609040709" transform="rotate(180 48.43535505559675 -9.870256609040709)" font-family="sans-serif">WROTE</text></g><g class="relationship" transform="translate(49.27681789854121 -46.80126500514936) rotate(371.6694874396753)"><path class="outline" fill="#A5ABB6" stroke="none" d="M 24.018736134675446,6.953439040707552 L 24.277555179777966,5.987513214418485 A 99.46516843212761 99.46516843212761 0 0 0 25.325487989773354,6.262198220022967 L 25.077204620893113,7.230885666384012 A 100.46516843212761 100.46516843212761 0 0 1 24.018736134675446,6.953439040707552 Z M 71.76526021187273,7.995373484025649 L 71.54882475014134,7.019076556392918 A 99.46516843212761 99.46516843212761 0 0 0 72.60518894716998,6.778848103030903 L 71.9240212316122,3.857202925518446 L 79.53588898062534,5.676397629648162 L 73.51341256791368,10.674375006380846 L 72.8322448523559,7.7527298288683895 A 100.46516843212761 100.46516843212761 0 0 1 71.76526021187273,7.995373484025649"/><text text-anchor="middle" pointer-events="none" font-size="8px" fill="#000000" x="48.38438714691469" y="12.863307994665206" font-family="sans-serif">DIRECTED</text></g><g class="relationship" transform="translate(49.27681789854121 -46.80126500514936) rotate(371.6694874396753)"><path class="outline" fill="#A5ABB6" stroke="none" d="M 24.018736134675446,-6.953439040707552 L 24.277555179777966,-5.987513214418485 A 99.46516843212761 99.46516843212761 0 0 1 30.71850427401447,-7.485776793195853 L 30.524441054451337,-8.466765818013556 A 100.46516843212761 100.46516843212761 0 0 0 24.018736134675446,-6.953439040707552 Z M 66.28048133789969,-9.052248697045286 L 66.11863971161961,-8.065431952151371 A 99.46516843212761 99.46516843212761 0 0 1 72.60518894716998,-6.778848103030903 L 71.9240212316122,-3.857202925518446 L 79.53588898062534,-5.676397629648162 L 73.51341256791368,-10.674375006380846 L 72.8322448523559,-7.7527298288683895 A 100.46516843212761 100.46516843212761 0 0 0 66.28048133789969,-9.052248697045286"/><text text-anchor="middle" pointer-events="none" font-size="8px" fill="#000000" x="48.38438714691467" y="-6.863307994665206" font-family="sans-serif">WROTE</text></g><g class="relationship" transform="translate(-60.853645514264066 93.72321142311361) rotate(432.11643023477836)"><path class="outline" fill="#A5ABB6" stroke="none" d="M 21.40063509461097,12.933012701892217 L 21.90063509461097,12.06698729810778 A 56.94686998481062 56.94686998481062 0 0 0 31.22266016197634,16.37948222418236 L 30.886357044172883,17.32123602054088 A 57.94686998481062 57.94686998481062 0 0 1 21.40063509461097,12.933012701892217 Z M 66.37317470131073,18.443970986817284 L 66.09707515325078,17.48284194264002 A 56.94686998481062 56.94686998481062 0 0 0 75.6730620721293,13.76824393296582 L 74.34029389759077,11.080544360294567 L 82.16648910411864,11.106401454487788 L 77.45008630484735,17.351843363194156 L 76.11731813030882,14.664143790522903 A 57.94686998481062 57.94686998481062 0 0 1 66.37317470131073,18.443970986817284"/><text text-anchor="middle" pointer-events="none" font-size="8px" fill="#000000" x="48.55747006288401" y="23.16769152432547" font-family="sans-serif">WROTE</text></g><g class="relationship" transform="translate(-60.853645514264066 93.72321142311361) rotate(432.11643023477836)"><path class="outline" fill="#A5ABB6" stroke="none" d="M 25 0.5 L 25.336680271522894 0.5 L 25.336680271522894 -0.5 L 25 -0.5 Z M 72.2273052715229 0.5 L 72.56398554304579 0.5 L 72.56398554304579 3.5 L 79.56398554304579 0 L 72.56398554304579 -3.5 L 72.56398554304579 -0.5 L 72.2273052715229 -0.5 Z"/><text text-anchor="middle" pointer-events="none" font-size="8px" fill="#000000" x="48.781992771522894" y="3" font-family="sans-serif">DIRECTED</text></g><g class="relationship" transform="translate(-60.853645514264066 93.72321142311361) rotate(432.11643023477836)"><path class="outline" fill="#A5ABB6" stroke="none" d="M 21.40063509461097,-12.933012701892217 L 21.90063509461097,-12.06698729810778 A 56.94686998481062 56.94686998481062 0 0 1 23.96029181827322,-13.200104429717712 L 23.496459859189457,-14.086027628269662 A 57.94686998481062 57.94686998481062 0 0 0 21.40063509461097,-12.933012701892217 Z M 73.95279946573979,-15.682369607815872 L 73.54589691198831,-14.768898036418854 A 56.94686998481062 56.94686998481062 0 0 1 75.6730620721293,-13.76824393296582 L 74.34029389759077,-11.080544360294567 L 82.16648910411864,-11.106401454487788 L 77.45008630484735,-17.351843363194156 L 76.11731813030882,-14.664143790522903 A 57.94686998481062 57.94686998481062 0 0 0 73.95279946573979,-15.682369607815872"/><text text-anchor="middle" pointer-events="none" font-size="8px" fill="#000000" x="48.55747006288402" y="-17.16769152432547" font-family="sans-serif">PRODUCED</text></g></g><g class="layer nodes"><g class="node" transform="translate(134.36154167590254,259.2866759073668)"><circle class="outline" cx="0" cy="0" r="25" fill="#F79767" stroke="#f36924" stroke-width="2px"/><text text-anchor="middle" pointer-events="none" font-family="sans-serif" dy="1.5625" font-size="25" fill="#FFFFFF"/><text text-anchor="middle" pointer-events="none" font-family="sans-serif" dy="1.5625" font-size="25" fill="#FFFFFF"/><text text-anchor="middle" pointer-events="none" x="0" y="0" font-size="10px" fill="#FFFFFF" font-family="sans-serif"> Cameron</text><text text-anchor="middle" pointer-events="none" x="0" y="10" font-size="10px" fill="#FFFFFF" font-family="sans-serif"> Crowe</text></g><g class="node" transform="translate(225.73267883711,207.28765312911796)"><circle class="outline" cx="0" cy="0" r="25" fill="#57C7E3" stroke="#23b3d7" stroke-width="2px"/><text text-anchor="middle" pointer-events="none" font-family="sans-serif" dy="1.5625" font-size="25" fill="#2A2C34"/><text text-anchor="middle" pointer-events="none" font-family="sans-serif" dy="1.5625" font-size="25" fill="#2A2C34"/><text text-anchor="middle" pointer-events="none" x="0" y="0" font-size="10px" fill="#2A2C34" font-family="sans-serif"> Jerry</text><text text-anchor="middle" pointer-events="none" x="0" y="10" font-size="10px" fill="#2A2C34" font-family="sans-serif"> Maguire</text></g><g class="node" transform="translate(245.07610274441035,18.537691085423305)"><circle class="outline" cx="0" cy="0" r="25" fill="#F79767" stroke="#f36924" stroke-width="2px"/><text text-anchor="middle" pointer-events="none" font-family="sans-serif" dy="1.5625" font-size="25" fill="#FFFFFF"/><text text-anchor="middle" pointer-events="none" font-family="sans-serif" dy="1.5625" font-size="25" fill="#FFFFFF"/><text text-anchor="middle" pointer-events="none" x="0" y="0" font-size="10px" fill="#FFFFFF" font-family="sans-serif"> Lana</text><text text-anchor="middle" pointer-events="none" x="0" y="10" font-size="10px" fill="#FFFFFF" font-family="sans-serif"> Wacho…</text></g><g class="node" transform="translate(151.0125589052247,-25.789302007061558)"><circle class="outline" cx="0" cy="0" r="25" fill="#57C7E3" stroke="#23b3d7" stroke-width="2px"/><text text-anchor="middle" pointer-events="none" font-family="sans-serif" dy="1.5625" font-size="25" fill="#2A2C34"/><text text-anchor="middle" pointer-events="none" font-family="sans-serif" dy="1.5625" font-size="25" fill="#2A2C34"/><text text-anchor="middle" pointer-events="none" x="0" y="0" font-size="10px" fill="#2A2C34" font-family="sans-serif"> Speed</text><text text-anchor="middle" pointer-events="none" x="0" y="10" font-size="10px" fill="#2A2C34" font-family="sans-serif"> Racer</text></g><g class="node" transform="translate(49.27681789854121,-46.80126500514936)"><circle class="outline" cx="0" cy="0" r="25" fill="#F79767" stroke="#f36924" stroke-width="2px"/><text text-anchor="middle" pointer-events="none" font-family="sans-serif" dy="1.5625" font-size="25" fill="#FFFFFF"/><text text-anchor="middle" pointer-events="none" font-family="sans-serif" dy="1.5625" font-size="25" fill="#FFFFFF"/><text text-anchor="middle" pointer-events="none" x="0" y="0" font-size="10px" fill="#FFFFFF" font-family="sans-serif"> Lilly</text><text text-anchor="middle" pointer-events="none" x="0" y="10" font-size="10px" fill="#FFFFFF" font-family="sans-serif"> Wacho…</text></g><g class="node" transform="translate(-60.853645514264066,93.72321142311361)"><circle class="outline" cx="0" cy="0" r="25" fill="#F79767" stroke="#f36924" stroke-width="2px"/><text text-anchor="middle" pointer-events="none" font-family="sans-serif" dy="1.5625" font-size="25" fill="#FFFFFF"/><text text-anchor="middle" pointer-events="none" font-family="sans-serif" dy="1.5625" font-size="25" fill="#FFFFFF"/><text text-anchor="middle" pointer-events="none" x="0" y="0" font-size="10px" fill="#FFFFFF" font-family="sans-serif"> Nancy</text><text text-anchor="middle" pointer-events="none" x="0" y="10" font-size="10px" fill="#FFFFFF" font-family="sans-serif"> Meyers</text></g><g class="node" transform="translate(-28.743747401536673,193.23492689338653)"><circle class="outline" cx="0" cy="0" r="25" fill="#57C7E3" stroke="#23b3d7" stroke-width="2px"/><text text-anchor="middle" pointer-events="none" font-family="sans-serif" dy="1.5625" font-size="25" fill="#2A2C34"/><text text-anchor="middle" pointer-events="none" x="0" y="5" font-size="10px" fill="#2A2C34" font-family="sans-serif"> Somethi…</text></g></g></svg>